<mxfile host="app.diagrams.net" modified="2021-09-14T06:40:54.692Z" agent="5.0 (Windows NT 10.0; WOW64) AppleWebKit/537.36 (KHTML, like Gecko) coc_coc_browser/98.0.168 Chrome/92.0.4515.168 Safari/537.36" etag="GXawHWv_p9-oTqbwHNUs" version="15.2.5" type="github">
  <diagram id="5MERz2-e9jpIuTovT51w" name="Page-1">
    <mxGraphModel dx="1038" dy="572" grid="1" gridSize="10" guides="1" tooltips="1" connect="1" arrows="1" fold="1" page="1" pageScale="1" pageWidth="827" pageHeight="1169" math="0" shadow="0">
      <root>
        <mxCell id="0" />
        <mxCell id="1" parent="0" />
        <mxCell id="X6f53pJD6-oP2WLMamHo-1" value="" style="swimlane;startSize=0;" vertex="1" parent="1">
          <mxGeometry x="130" y="30" width="600" height="530" as="geometry" />
        </mxCell>
        <mxCell id="X6f53pJD6-oP2WLMamHo-2" value="Order food use case for POS web-based system&lt;br&gt;" style="text;html=1;align=center;verticalAlign=middle;resizable=0;points=[];autosize=1;strokeColor=#d79b00;fillColor=#ffe6cc;" vertex="1" parent="X6f53pJD6-oP2WLMamHo-1">
          <mxGeometry x="149" y="20" width="270" height="20" as="geometry" />
        </mxCell>
        <mxCell id="X6f53pJD6-oP2WLMamHo-6" value="Access Pos website" style="ellipse;whiteSpace=wrap;html=1;" vertex="1" parent="X6f53pJD6-oP2WLMamHo-1">
          <mxGeometry x="80" y="80" width="100" height="60" as="geometry" />
        </mxCell>
        <mxCell id="X6f53pJD6-oP2WLMamHo-7" value="Select meal" style="ellipse;whiteSpace=wrap;html=1;" vertex="1" parent="X6f53pJD6-oP2WLMamHo-1">
          <mxGeometry x="50" y="180" width="110" height="50" as="geometry" />
        </mxCell>
        <mxCell id="X6f53pJD6-oP2WLMamHo-9" value="Use Case" style="ellipse;whiteSpace=wrap;html=1;" vertex="1" parent="X6f53pJD6-oP2WLMamHo-1">
          <mxGeometry x="270" y="110" width="140" height="70" as="geometry" />
        </mxCell>
        <mxCell id="X6f53pJD6-oP2WLMamHo-3" value="Customer" style="shape=umlActor;verticalLabelPosition=bottom;verticalAlign=top;html=1;" vertex="1" parent="1">
          <mxGeometry x="50" y="130" width="30" height="60" as="geometry" />
        </mxCell>
        <mxCell id="X6f53pJD6-oP2WLMamHo-4" value="Clerk" style="shape=umlActor;verticalLabelPosition=bottom;verticalAlign=top;html=1;" vertex="1" parent="1">
          <mxGeometry x="750" y="140" width="30" height="60" as="geometry" />
        </mxCell>
        <mxCell id="X6f53pJD6-oP2WLMamHo-8" value="Add food to cart" style="ellipse;whiteSpace=wrap;html=1;" vertex="1" parent="1">
          <mxGeometry x="340" y="250" width="140" height="70" as="geometry" />
        </mxCell>
      </root>
    </mxGraphModel>
  </diagram>
</mxfile>
